<svg xmlns="http://www.w3.org/2000/svg" width="3100" height="2300" viewBox="0 0 3100 2300">
<rect width="100%" height="100%" fill="white"/>
<text x="1550" y="38" text-anchor="middle" font-family="Arial" font-size="26" font-weight="700">ERD he thong quan ly su kien</text>
<text x="1550" y="64" text-anchor="middle" font-family="Arial" font-size="14">Bo cuc tach cum va dung waypoint co dinh de han che duong noi cat nhau</text>
<rect x="470" y="95" width="1380" height="900" rx="10" fill="none" stroke="#888" stroke-dasharray="8 5"/>
<text x="482" y="120" font-family="Arial" font-size="15" font-weight="700">Cum su kien - dang ky - diem danh - thong bao</text>
<rect x="470" y="995" width="520" height="390" rx="10" fill="none" stroke="#888" stroke-dasharray="8 5"/>
<text x="482" y="1020" font-family="Arial" font-size="15" font-weight="700">Cum thu vien media</text>
<rect x="60" y="1500" width="1320" height="470" rx="10" fill="none" stroke="#888" stroke-dasharray="8 5"/>
<text x="72" y="1525" font-family="Arial" font-size="15" font-weight="700">Cum bau cu truc tuyen</text>
<rect x="2150" y="130" width="560" height="1460" rx="10" fill="none" stroke="#888" stroke-dasharray="8 5"/>
<text x="2162" y="155" font-family="Arial" font-size="15" font-weight="700">Cum he thong</text>
<polyline points="772.5,215 772,275" fill="none" stroke="black" stroke-width="1.8"/>
<text x="772.35" y="225.0" font-family="Arial" font-size="11" font-weight="700">(1,1)</text>
<polyline points="792.5,360 772,275" fill="none" stroke="black" stroke-width="1.8"/>
<text x="786.35" y="326.5" font-family="Arial" font-size="11" font-weight="700">(1,n)</text>
<polyline points="895,167.5 970,182" fill="none" stroke="black" stroke-width="1.8"/>
<text x="917.5" y="163.85" font-family="Arial" font-size="11" font-weight="700">(1,1)</text>
<polyline points="1050,182.5 970,182" fill="none" stroke="black" stroke-width="1.8"/>
<text x="1026.0" y="174.35" font-family="Arial" font-size="11" font-weight="700">(1,n)</text>
<polyline points="350,747.5 420,748 420,430 500,430" fill="none" stroke="black" stroke-width="1.8"/>
<text x="395.0" y="644.25" font-family="Arial" font-size="11" font-weight="700">(1,1)</text>
<polyline points="650,442.5 500,430" fill="none" stroke="black" stroke-width="1.8"/>
<text x="605.0" y="430.75" font-family="Arial" font-size="11" font-weight="700">(1,n)</text>
<polyline points="225.0,680 225,95 500,95 500,182" fill="none" stroke="black" stroke-width="1.8"/>
<text x="307.5" y="522.5999999999999" font-family="Arial" font-size="11" font-weight="700">(1,1)</text>
<polyline points="1050,182.5 500,182" fill="none" stroke="black" stroke-width="1.8"/>
<text x="885.0" y="174.35" font-family="Arial" font-size="11" font-weight="700">(1,n)</text>
<polyline points="935,442.5 995,452" fill="none" stroke="black" stroke-width="1.8"/>
<text x="953.0" y="437.35" font-family="Arial" font-size="11" font-weight="700">(1,1)</text>
<polyline points="1050,452.5 995,452" fill="none" stroke="black" stroke-width="1.8"/>
<text x="1033.5" y="444.35" font-family="Arial" font-size="11" font-weight="700">(1,n)</text>
<polyline points="350,747.5 410,748 410,610 500,610" fill="none" stroke="black" stroke-width="1.8"/>
<text x="395.0" y="698.25" font-family="Arial" font-size="11" font-weight="700">(1,1)</text>
<polyline points="1050,452.5 1015,610 1015,452 500,610" fill="none" stroke="black" stroke-width="1.8"/>
<text x="885.0" y="491.75" font-family="Arial" font-size="11" font-weight="700">(1,n)</text>
<polyline points="1310,452.5 1410,452" fill="none" stroke="black" stroke-width="1.8"/>
<text x="1340.0" y="444.35" font-family="Arial" font-size="11" font-weight="700">(1,1)</text>
<polyline points="1510,332.5 1475,452 1475,332 1410,452" fill="none" stroke="black" stroke-width="1.8"/>
<text x="1480.0" y="360.34999999999997" font-family="Arial" font-size="11" font-weight="700">(1,n)</text>
<polyline points="935,442.5 965,442 965,245 1225,245" fill="none" stroke="black" stroke-width="1.8"/>
<text x="1022.0" y="375.25" font-family="Arial" font-size="11" font-weight="700">(1,1)</text>
<polyline points="1510,332.5 1475,245 1475,332 1225,245" fill="none" stroke="black" stroke-width="1.8"/>
<text x="1424.5" y="298.25" font-family="Arial" font-size="11" font-weight="700">(1,n)</text>
<polyline points="225.0,680 225,260 500,260" fill="none" stroke="black" stroke-width="1.8"/>
<text x="307.5" y="546.0" font-family="Arial" font-size="11" font-weight="700">(1,1)</text>
<polyline points="1510,332.5 1480,260 1480,332 500,260" fill="none" stroke="black" stroke-width="1.8"/>
<text x="1207.0" y="302.75" font-family="Arial" font-size="11" font-weight="700">(1,n)</text>
<polyline points="1310,452.5 1365,452 1365,602 1410,602" fill="none" stroke="black" stroke-width="1.8"/>
<text x="1340.0" y="489.35" font-family="Arial" font-size="11" font-weight="700">(1,1)</text>
<polyline points="1510,602.5 1410,602" fill="none" stroke="black" stroke-width="1.8"/>
<text x="1480.0" y="594.35" font-family="Arial" font-size="11" font-weight="700">(1,n)</text>
<polyline points="350,747.5 390,748 390,660 500,660" fill="none" stroke="black" stroke-width="1.8"/>
<text x="395.0" y="713.25" font-family="Arial" font-size="11" font-weight="700">(1,1)</text>
<polyline points="1510,602.5 500,660" fill="none" stroke="black" stroke-width="1.8"/>
<text x="1207.0" y="611.75" font-family="Arial" font-size="11" font-weight="700">(1,n)</text>
<polyline points="792.5,525 792,675 995,675" fill="none" stroke="black" stroke-width="1.8"/>
<text x="853.25" y="562.0" font-family="Arial" font-size="11" font-weight="700">(1,1)</text>
<polyline points="1050,770.0 1030,675 1030,770 995,675" fill="none" stroke="black" stroke-width="1.8"/>
<text x="1033.5" y="733.5" font-family="Arial" font-size="11" font-weight="700">(1,n)</text>
<polyline points="350,747.5 370,748 370,790 500,790" fill="none" stroke="black" stroke-width="1.8"/>
<text x="395.0" y="752.25" font-family="Arial" font-size="11" font-weight="700">(1,1)</text>
<polyline points="1050,770.0 500,790" fill="none" stroke="black" stroke-width="1.8"/>
<text x="885.0" y="768.0" font-family="Arial" font-size="11" font-weight="700">(1,n)</text>
<polyline points="792.5,525 830,920 1225,920" fill="none" stroke="black" stroke-width="1.8"/>
<text x="922.25" y="635.5" font-family="Arial" font-size="11" font-weight="700">(1,1)</text>
<polyline points="1510,887.5 1225,920" fill="none" stroke="black" stroke-width="1.8"/>
<text x="1424.5" y="889.25" font-family="Arial" font-size="11" font-weight="700">(1,n)</text>
<polyline points="225.0,815 225,940 500,940" fill="none" stroke="black" stroke-width="1.8"/>
<text x="307.5" y="844.5" font-family="Arial" font-size="11" font-weight="700">(1,1)</text>
<polyline points="1510,887.5 500,940" fill="none" stroke="black" stroke-width="1.8"/>
<text x="1207.0" y="895.25" font-family="Arial" font-size="11" font-weight="700">(1,n)</text>
<polyline points="792.5,525 800,930 800,930" fill="none" stroke="black" stroke-width="1.8"/>
<text x="794.75" y="638.5" font-family="Arial" font-size="11" font-weight="700">(1,1)</text>
<polyline points="800.0,1010 800,930" fill="none" stroke="black" stroke-width="1.8"/>
<text x="800.0" y="978.0" font-family="Arial" font-size="11" font-weight="700">(1,n)</text>
<polyline points="225.0,815 225,900 500,900 500,1080" fill="none" stroke="black" stroke-width="1.8"/>
<text x="307.5" y="886.5" font-family="Arial" font-size="11" font-weight="700">(1,1)</text>
<polyline points="650,1077.5 500,1080" fill="none" stroke="black" stroke-width="1.8"/>
<text x="605.0" y="1070.25" font-family="Arial" font-size="11" font-weight="700">(1,n)</text>
<polyline points="330,1092.5 460,1090" fill="none" stroke="black" stroke-width="1.8"/>
<text x="369.0" y="1083.75" font-family="Arial" font-size="11" font-weight="700">(1,1)</text>
<polyline points="650,1297.5 620,1090 620,1298 460,1090" fill="none" stroke="black" stroke-width="1.8"/>
<text x="593.0" y="1227.25" font-family="Arial" font-size="11" font-weight="700">(1,n)</text>
<polyline points="800.0,1145 800,1195" fill="none" stroke="black" stroke-width="1.8"/>
<text x="800.0" y="1152.0" font-family="Arial" font-size="11" font-weight="700">(1,1)</text>
<polyline points="780.0,1250 800,1195" fill="none" stroke="black" stroke-width="1.8"/>
<text x="786.0" y="1225.5" font-family="Arial" font-size="11" font-weight="700">(1,n)</text>
<polyline points="225.0,815 225,965" fill="none" stroke="black" stroke-width="1.8"/>
<text x="225.0" y="852.0" font-family="Arial" font-size="11" font-weight="700">(1,1)</text>
<polyline points="215.0,1040 225,965" fill="none" stroke="black" stroke-width="1.8"/>
<text x="218.0" y="1009.5" font-family="Arial" font-size="11" font-weight="700">(1,n)</text>
<polyline points="225.0,815 225,1450" fill="none" stroke="black" stroke-width="1.8"/>
<text x="225.0" y="997.5" font-family="Arial" font-size="11" font-weight="700">(1,1)</text>
<polyline points="225.0,1550 225,1450" fill="none" stroke="black" stroke-width="1.8"/>
<text x="225.0" y="1512.0" font-family="Arial" font-size="11" font-weight="700">(1,n)</text>
<polyline points="350,1612.5 500,1605" fill="none" stroke="black" stroke-width="1.8"/>
<text x="395.0" y="1602.25" font-family="Arial" font-size="11" font-weight="700">(1,1)</text>
<polyline points="650,1597.5 500,1605" fill="none" stroke="black" stroke-width="1.8"/>
<text x="605.0" y="1591.75" font-family="Arial" font-size="11" font-weight="700">(1,n)</text>
<polyline points="225.0,815 55,815 55,1605" fill="none" stroke="black" stroke-width="1.8"/>
<text x="174.0" y="1044.0" font-family="Arial" font-size="11" font-weight="700">(1,1)</text>
<polyline points="650,1597.5 55,1605 55,1605" fill="none" stroke="black" stroke-width="1.8"/>
<text x="471.49999999999994" y="1591.75" font-family="Arial" font-size="11" font-weight="700">(1,n)</text>
<polyline points="350,1612.5 500,1612 500,1815" fill="none" stroke="black" stroke-width="1.8"/>
<text x="395.0" y="1665.25" font-family="Arial" font-size="11" font-weight="700">(1,1)</text>
<polyline points="650,1832.5 500,1815" fill="none" stroke="black" stroke-width="1.8"/>
<text x="605.0" y="1819.25" font-family="Arial" font-size="11" font-weight="700">(1,n)</text>
<polyline points="350,1612.5 430,1660 430,1490 970,1490 970,1605" fill="none" stroke="black" stroke-width="1.8"/>
<text x="536.0" y="1602.25" font-family="Arial" font-size="11" font-weight="700">(1,1)</text>
<polyline points="1050,1602.5 970,1605" fill="none" stroke="black" stroke-width="1.8"/>
<text x="1026.0" y="1595.25" font-family="Arial" font-size="11" font-weight="700">(1,n)</text>
<polyline points="890,1832.5 970,1832" fill="none" stroke="black" stroke-width="1.8"/>
<text x="914.0" y="1824.35" font-family="Arial" font-size="11" font-weight="700">(1,1)</text>
<polyline points="1050,1847.5 970,1832" fill="none" stroke="black" stroke-width="1.8"/>
<text x="1026.0" y="1834.85" font-family="Arial" font-size="11" font-weight="700">(1,n)</text>
<polyline points="1180.0,1665 1190,1730" fill="none" stroke="black" stroke-width="1.8"/>
<text x="1183.0" y="1676.5" font-family="Arial" font-size="11" font-weight="700">(1,1)</text>
<polyline points="1190.0,1800 1190,1730" fill="none" stroke="black" stroke-width="1.8"/>
<text x="1190.0" y="1771.0" font-family="Arial" font-size="11" font-weight="700">(1,n)</text>
<polyline points="225.0,680 225,45 2200,45 2200,222" fill="none" stroke="black" stroke-width="1.8" stroke-dasharray="8 5"/>
<text x="817.5" y="534.5999999999999" font-family="Arial" font-size="11" font-weight="700">(1,1)</text>
<polyline points="2350,222.5 2200,222" fill="none" stroke="black" stroke-width="1.8" stroke-dasharray="8 5"/>
<text x="2305.0" y="214.35" font-family="Arial" font-size="11" font-weight="700">(1,n)</text>
<polyline points="225.0,680 205,35 2200,35 2200,422" fill="none" stroke="black" stroke-width="1.8" stroke-dasharray="8 5"/>
<text x="817.5" y="594.5999999999999" font-family="Arial" font-size="11" font-weight="700">(1,1)</text>
<polyline points="2350,422.5 2200,422" fill="none" stroke="black" stroke-width="1.8" stroke-dasharray="8 5"/>
<text x="2305.0" y="414.35" font-family="Arial" font-size="11" font-weight="700">(1,n)</text>
<polyline points="225.0,680 185,25 2200,25 2200,628" fill="none" stroke="black" stroke-width="1.8" stroke-dasharray="8 5"/>
<text x="817.5" y="656.4" font-family="Arial" font-size="11" font-weight="700">(1,1)</text>
<polyline points="2350,627.5 2200,628" fill="none" stroke="black" stroke-width="1.8" stroke-dasharray="8 5"/>
<text x="2305.0" y="619.65" font-family="Arial" font-size="11" font-weight="700">(1,n)</text>
<circle cx="772" cy="275" r="17" fill="white" stroke="black" stroke-width="2"/>
<text x="772" y="279" text-anchor="middle" font-family="Arial" font-size="10" font-weight="700">QLSK</text>
<circle cx="970" cy="182" r="17" fill="white" stroke="black" stroke-width="2"/>
<text x="970" y="186" text-anchor="middle" font-family="Arial" font-size="10" font-weight="700">MLSK</text>
<circle cx="500" cy="430" r="17" fill="white" stroke="black" stroke-width="2"/>
<text x="500" y="434" text-anchor="middle" font-family="Arial" font-size="10" font-weight="700">Tao_SK</text>
<circle cx="500" cy="182" r="17" fill="white" stroke="black" stroke-width="2"/>
<text x="500" y="186" text-anchor="middle" font-family="Arial" font-size="10" font-weight="700">Tao_Mau</text>
<circle cx="995" cy="452" r="17" fill="white" stroke="black" stroke-width="2"/>
<text x="995" y="456" text-anchor="middle" font-family="Arial" font-size="10" font-weight="700">Co_DK</text>
<circle cx="500" cy="610" r="17" fill="white" stroke="black" stroke-width="2"/>
<text x="500" y="614" text-anchor="middle" font-family="Arial" font-size="10" font-weight="700">Dang_ky</text>
<ellipse cx="1410" cy="452" rx="36.0" ry="20.0" fill="white" stroke="black" stroke-width="2"/>
<text x="1410" y="456" text-anchor="middle" font-family="Arial" font-size="10" font-weight="700">Diem_danh</text>
<circle cx="1225" cy="245" r="17" fill="white" stroke="black" stroke-width="2"/>
<text x="1225" y="249" text-anchor="middle" font-family="Arial" font-size="10" font-weight="700">DD_SK</text>
<circle cx="500" cy="260" r="17" fill="white" stroke="black" stroke-width="2"/>
<text x="500" y="264" text-anchor="middle" font-family="Arial" font-size="10" font-weight="700">DD_SV</text>
<ellipse cx="1410" cy="602" rx="36.0" ry="20.0" fill="white" stroke="black" stroke-width="2"/>
<text x="1410" y="606" text-anchor="middle" font-family="Arial" font-size="10" font-weight="700">Sinh_diem</text>
<ellipse cx="500" cy="660" rx="36.0" ry="20.0" fill="white" stroke="black" stroke-width="2"/>
<text x="500" y="664" text-anchor="middle" font-family="Arial" font-size="10" font-weight="700">Nhan_diem</text>
<circle cx="995" cy="675" r="17" fill="white" stroke="black" stroke-width="2"/>
<text x="995" y="679" text-anchor="middle" font-family="Arial" font-size="10" font-weight="700">TB_SK</text>
<circle cx="500" cy="790" r="17" fill="white" stroke="black" stroke-width="2"/>
<text x="500" y="794" text-anchor="middle" font-family="Arial" font-size="10" font-weight="700">Nhan_TB</text>
<ellipse cx="1225" cy="920" rx="40.0" ry="20.0" fill="white" stroke="black" stroke-width="2"/>
<text x="1225" y="924" text-anchor="middle" font-family="Arial" font-size="10" font-weight="700">Lich_TB_SK</text>
<ellipse cx="500" cy="940" rx="44.0" ry="20.0" fill="white" stroke="black" stroke-width="2"/>
<text x="500" y="944" text-anchor="middle" font-family="Arial" font-size="10" font-weight="700">Tao_Lich_TB</text>
<circle cx="800" cy="930" r="17" fill="white" stroke="black" stroke-width="2"/>
<text x="800" y="934" text-anchor="middle" font-family="Arial" font-size="10" font-weight="700">Media_SK</text>
<circle cx="500" cy="1080" r="17" fill="white" stroke="black" stroke-width="2"/>
<text x="500" y="1084" text-anchor="middle" font-family="Arial" font-size="10" font-weight="700">Upload</text>
<circle cx="460" cy="1090" r="17" fill="white" stroke="black" stroke-width="2"/>
<text x="460" y="1094" text-anchor="middle" font-family="Arial" font-size="10" font-weight="700">Gan_the</text>
<ellipse cx="800" cy="1195" rx="36.0" ry="20.0" fill="white" stroke="black" stroke-width="2"/>
<text x="800" y="1199" text-anchor="middle" font-family="Arial" font-size="10" font-weight="700">Gan_media</text>
<circle cx="225" cy="965" r="17" fill="white" stroke="black" stroke-width="2"/>
<text x="225" y="969" text-anchor="middle" font-family="Arial" font-size="10" font-weight="700">Tao_the</text>
<circle cx="225" cy="1450" r="17" fill="white" stroke="black" stroke-width="2"/>
<text x="225" y="1454" text-anchor="middle" font-family="Arial" font-size="10" font-weight="700">Tao_BC</text>
<ellipse cx="500" cy="1605" rx="36.0" ry="20.0" fill="white" stroke="black" stroke-width="2"/>
<text x="500" y="1609" text-anchor="middle" font-family="Arial" font-size="10" font-weight="700">Co_cu_tri</text>
<ellipse cx="55" cy="1605" rx="36.0" ry="20.0" fill="white" stroke="black" stroke-width="2"/>
<text x="55" y="1609" text-anchor="middle" font-family="Arial" font-size="10" font-weight="700">La_cu_tri</text>
<ellipse cx="500" cy="1815" rx="40.0" ry="20.0" fill="white" stroke="black" stroke-width="2"/>
<text x="500" y="1819" text-anchor="middle" font-family="Arial" font-size="10" font-weight="700">Nhan_phieu</text>
<circle cx="970" cy="1605" r="17" fill="white" stroke="black" stroke-width="2"/>
<text x="970" y="1609" text-anchor="middle" font-family="Arial" font-size="10" font-weight="700">Co_UCV</text>
<circle cx="970" cy="1832" r="17" fill="white" stroke="black" stroke-width="2"/>
<text x="970" y="1836" text-anchor="middle" font-family="Arial" font-size="10" font-weight="700">CT_phieu</text>
<ellipse cx="1190" cy="1730" rx="36.0" ry="20.0" fill="white" stroke="black" stroke-width="2"/>
<text x="1190" y="1734" text-anchor="middle" font-family="Arial" font-size="10" font-weight="700">Duoc_chon</text>
<circle cx="2200" cy="222" r="17" fill="white" stroke="black" stroke-width="2"/>
<text x="2200" y="226" text-anchor="middle" font-family="Arial" font-size="10" font-weight="700">Token</text>
<circle cx="2200" cy="422" r="17" fill="white" stroke="black" stroke-width="2"/>
<text x="2200" y="426" text-anchor="middle" font-family="Arial" font-size="10" font-weight="700">Reset</text>
<circle cx="2200" cy="628" r="17" fill="white" stroke="black" stroke-width="2"/>
<text x="2200" y="632" text-anchor="middle" font-family="Arial" font-size="10" font-weight="700">Log</text>
<rect x="100" y="680" width="250" height="135" rx="7" fill="white" stroke="black" stroke-width="2.2"/>
<line x1="270.0" y1="680" x2="270.0" y2="815" stroke="black" stroke-width="1.8"/>
<text x="310.0" y="751.5" text-anchor="middle" font-family="Arial" font-size="13" font-weight="700">Nguoi_dung</text>
<text x="112" y="702" font-family="Arial" font-size="12" font-weight="700" text-decoration="underline">id ma_sinh_vien</text>
<text x="112" y="719" font-family="Arial" font-size="12" font-weight="400">vai_tro</text>
<text x="112" y="736" font-family="Arial" font-size="12" font-weight="400">ho_ten</text>
<text x="112" y="753" font-family="Arial" font-size="12" font-weight="400">email</text>
<text x="112" y="770" font-family="Arial" font-size="12" font-weight="400">lop</text>
<text x="112" y="787" font-family="Arial" font-size="12" font-weight="400">trang_thai</text>
<text x="112" y="804" font-family="Arial" font-size="12" font-weight="400">...</text>
<rect x="650" y="120" width="245" height="95" rx="7" fill="white" stroke="black" stroke-width="2.2"/>
<line x1="816.6" y1="120" x2="816.6" y2="215" stroke="black" stroke-width="1.8"/>
<text x="855.8000000000001" y="171.5" text-anchor="middle" font-family="Arial" font-size="13" font-weight="700">Loai_su_kien</text>
<text x="662" y="142" font-family="Arial" font-size="12" font-weight="700" text-decoration="underline">id ma_loai_su_kien</text>
<text x="662" y="159" font-family="Arial" font-size="12" font-weight="400">ten_loai</text>
<text x="662" y="176" font-family="Arial" font-size="12" font-weight="400">mo_ta</text>
<rect x="1050" y="120" width="255" height="125" rx="7" fill="white" stroke="black" stroke-width="2.2"/>
<line x1="1223.4" y1="120" x2="1223.4" y2="245" stroke="black" stroke-width="1.8"/>
<text x="1264.2" y="186.5" text-anchor="middle" font-family="Arial" font-size="13" font-weight="700">Mau_bai_dang</text>
<text x="1062" y="142" font-family="Arial" font-size="12" font-weight="700" text-decoration="underline">id ma_mau</text>
<text x="1062" y="159" font-family="Arial" font-size="12" font-weight="400">ten_mau</text>
<text x="1062" y="176" font-family="Arial" font-size="12" font-weight="400">ma_nguoi_tao</text>
<text x="1062" y="193" font-family="Arial" font-size="12" font-weight="400">ma_loai_su_kien</text>
<text x="1062" y="210" font-family="Arial" font-size="12" font-weight="400">bo_cuc</text>
<text x="1062" y="227" font-family="Arial" font-size="12" font-weight="400">...</text>
<rect x="650" y="360" width="285" height="165" rx="7" fill="white" stroke="black" stroke-width="2.2"/>
<line x1="843.8" y1="360" x2="843.8" y2="525" stroke="black" stroke-width="1.8"/>
<text x="889.4" y="446.5" text-anchor="middle" font-family="Arial" font-size="13" font-weight="700">Su_kien</text>
<text x="662" y="382" font-family="Arial" font-size="12" font-weight="700" text-decoration="underline">id ma_su_kien</text>
<text x="662" y="399" font-family="Arial" font-size="12" font-weight="400">ten_su_kien</text>
<text x="662" y="416" font-family="Arial" font-size="12" font-weight="400">ma_loai_su_kien</text>
<text x="662" y="433" font-family="Arial" font-size="12" font-weight="400">ma_nguoi_tao</text>
<text x="662" y="450" font-family="Arial" font-size="12" font-weight="400">thoi_gian</text>
<text x="662" y="467" font-family="Arial" font-size="12" font-weight="400">dia_diem</text>
<text x="662" y="484" font-family="Arial" font-size="12" font-weight="400">trang_thai</text>
<text x="662" y="501" font-family="Arial" font-size="12" font-weight="400">...</text>
<rect x="1050" y="390" width="260" height="125" rx="7" fill="white" stroke="black" stroke-width="2.2"/>
<line x1="1226.8" y1="390" x2="1226.8" y2="515" stroke="black" stroke-width="1.8"/>
<text x="1268.3999999999999" y="456.5" text-anchor="middle" font-family="Arial" font-size="13" font-weight="700">Dang_ky</text>
<text x="1062" y="412" font-family="Arial" font-size="12" font-weight="700" text-decoration="underline">id ma_dang_ky</text>
<text x="1062" y="429" font-family="Arial" font-size="12" font-weight="400">ma_sinh_vien</text>
<text x="1062" y="446" font-family="Arial" font-size="12" font-weight="400">ma_su_kien</text>
<text x="1062" y="463" font-family="Arial" font-size="12" font-weight="400">trang_thai_tham_gia</text>
<text x="1062" y="480" font-family="Arial" font-size="12" font-weight="400">...</text>
<rect x="1510" y="260" width="300" height="145" rx="7" fill="white" stroke="black" stroke-width="2.2"/>
<line x1="1714.0" y1="260" x2="1714.0" y2="405" stroke="black" stroke-width="1.8"/>
<text x="1762.0" y="336.5" text-anchor="middle" font-family="Arial" font-size="13" font-weight="700">Chi_tiet_diem_danh</text>
<text x="1522" y="282" font-family="Arial" font-size="12" font-weight="700" text-decoration="underline">id ma_chi_tiet_diem_danh</text>
<text x="1522" y="299" font-family="Arial" font-size="12" font-weight="400">ma_dang_ky</text>
<text x="1522" y="316" font-family="Arial" font-size="12" font-weight="400">ma_su_kien</text>
<text x="1522" y="333" font-family="Arial" font-size="12" font-weight="400">ma_sinh_vien</text>
<text x="1522" y="350" font-family="Arial" font-size="12" font-weight="400">loai_diem_danh</text>
<text x="1522" y="367" font-family="Arial" font-size="12" font-weight="400">diem_danh_at</text>
<rect x="1510" y="540" width="280" height="125" rx="7" fill="white" stroke="black" stroke-width="2.2"/>
<line x1="1700.4" y1="540" x2="1700.4" y2="665" stroke="black" stroke-width="1.8"/>
<text x="1745.2" y="606.5" text-anchor="middle" font-family="Arial" font-size="13" font-weight="700">Lich_su_diem</text>
<text x="1522" y="562" font-family="Arial" font-size="12" font-weight="700" text-decoration="underline">id ma_lich_su_diem</text>
<text x="1522" y="579" font-family="Arial" font-size="12" font-weight="400">ma_sinh_vien</text>
<text x="1522" y="596" font-family="Arial" font-size="12" font-weight="400">ma_dang_ky</text>
<text x="1522" y="613" font-family="Arial" font-size="12" font-weight="400">diem</text>
<text x="1522" y="630" font-family="Arial" font-size="12" font-weight="400">nguon</text>
<text x="1522" y="647" font-family="Arial" font-size="12" font-weight="400">...</text>
<rect x="1050" y="710" width="260" height="120" rx="7" fill="white" stroke="black" stroke-width="2.2"/>
<line x1="1226.8" y1="710" x2="1226.8" y2="830" stroke="black" stroke-width="1.8"/>
<text x="1268.3999999999999" y="774.0" text-anchor="middle" font-family="Arial" font-size="13" font-weight="700">Thong_bao</text>
<text x="1062" y="732" font-family="Arial" font-size="12" font-weight="700" text-decoration="underline">id ma_thong_bao</text>
<text x="1062" y="749" font-family="Arial" font-size="12" font-weight="400">ma_sinh_vien</text>
<text x="1062" y="766" font-family="Arial" font-size="12" font-weight="400">ma_su_kien_lien_quan</text>
<text x="1062" y="783" font-family="Arial" font-size="12" font-weight="400">tieu_de</text>
<text x="1062" y="800" font-family="Arial" font-size="12" font-weight="400">da_doc</text>
<text x="1062" y="817" font-family="Arial" font-size="12" font-weight="400">...</text>
<rect x="1510" y="820" width="300" height="135" rx="7" fill="white" stroke="black" stroke-width="2.2"/>
<line x1="1714.0" y1="820" x2="1714.0" y2="955" stroke="black" stroke-width="1.8"/>
<text x="1762.0" y="891.5" text-anchor="middle" font-family="Arial" font-size="13" font-weight="700">Lich_gui_thong_bao</text>
<text x="1522" y="842" font-family="Arial" font-size="12" font-weight="700" text-decoration="underline">id ma_lich_gui</text>
<text x="1522" y="859" font-family="Arial" font-size="12" font-weight="400">ma_su_kien_lien_quan</text>
<text x="1522" y="876" font-family="Arial" font-size="12" font-weight="400">ma_nguoi_tao</text>
<text x="1522" y="893" font-family="Arial" font-size="12" font-weight="400">pham_vi</text>
<text x="1522" y="910" font-family="Arial" font-size="12" font-weight="400">trang_thai</text>
<text x="1522" y="927" font-family="Arial" font-size="12" font-weight="400">...</text>
<rect x="650" y="1010" width="300" height="135" rx="7" fill="white" stroke="black" stroke-width="2.2"/>
<line x1="854.0" y1="1010" x2="854.0" y2="1145" stroke="black" stroke-width="1.8"/>
<text x="902.0" y="1081.5" text-anchor="middle" font-family="Arial" font-size="13" font-weight="700">Thu_vien_media</text>
<text x="662" y="1032" font-family="Arial" font-size="12" font-weight="700" text-decoration="underline">id ma_phuong_tien</text>
<text x="662" y="1049" font-family="Arial" font-size="12" font-weight="400">ma_su_kien</text>
<text x="662" y="1066" font-family="Arial" font-size="12" font-weight="400">ma_nguoi_tai_len</text>
<text x="662" y="1083" font-family="Arial" font-size="12" font-weight="400">ten_tep</text>
<text x="662" y="1100" font-family="Arial" font-size="12" font-weight="400">loai_tep</text>
<text x="662" y="1117" font-family="Arial" font-size="12" font-weight="400">...</text>
<rect x="100" y="1040" width="230" height="105" rx="7" fill="white" stroke="black" stroke-width="2.2"/>
<line x1="256.4" y1="1040" x2="256.4" y2="1145" stroke="black" stroke-width="1.8"/>
<text x="293.2" y="1096.5" text-anchor="middle" font-family="Arial" font-size="13" font-weight="700">The_anh</text>
<text x="112" y="1062" font-family="Arial" font-size="12" font-weight="700" text-decoration="underline">id ma_the_anh</text>
<text x="112" y="1079" font-family="Arial" font-size="12" font-weight="400">ma_nguoi_tao</text>
<text x="112" y="1096" font-family="Arial" font-size="12" font-weight="400">ten_the</text>
<text x="112" y="1113" font-family="Arial" font-size="12" font-weight="400">mau_sac</text>
<rect x="650" y="1250" width="260" height="95" rx="7" fill="white" stroke="black" stroke-width="2.2"/>
<line x1="826.8" y1="1250" x2="826.8" y2="1345" stroke="black" stroke-width="1.8"/>
<text x="868.4" y="1301.5" text-anchor="middle" font-family="Arial" font-size="13" font-weight="700">The_anh_thu_vien</text>
<text x="662" y="1272" font-family="Arial" font-size="12" font-weight="700" text-decoration="underline">id</text>
<text x="662" y="1289" font-family="Arial" font-size="12" font-weight="400">ma_the_anh</text>
<text x="662" y="1306" font-family="Arial" font-size="12" font-weight="400">ma_phuong_tien</text>
<rect x="100" y="1550" width="250" height="125" rx="7" fill="white" stroke="black" stroke-width="2.2"/>
<line x1="270.0" y1="1550" x2="270.0" y2="1675" stroke="black" stroke-width="1.8"/>
<text x="310.0" y="1616.5" text-anchor="middle" font-family="Arial" font-size="13" font-weight="700">Bau_cu</text>
<text x="112" y="1572" font-family="Arial" font-size="12" font-weight="700" text-decoration="underline">id ma_bau_cu</text>
<text x="112" y="1589" font-family="Arial" font-size="12" font-weight="400">ma_nguoi_tao</text>
<text x="112" y="1606" font-family="Arial" font-size="12" font-weight="400">tieu_de</text>
<text x="112" y="1623" font-family="Arial" font-size="12" font-weight="400">thoi_gian</text>
<text x="112" y="1640" font-family="Arial" font-size="12" font-weight="400">trang_thai</text>
<text x="112" y="1657" font-family="Arial" font-size="12" font-weight="400">...</text>
<rect x="650" y="1540" width="240" height="115" rx="7" fill="white" stroke="black" stroke-width="2.2"/>
<line x1="813.2" y1="1540" x2="813.2" y2="1655" stroke="black" stroke-width="1.8"/>
<text x="851.6" y="1601.5" text-anchor="middle" font-family="Arial" font-size="13" font-weight="700">Cu_tri</text>
<text x="662" y="1562" font-family="Arial" font-size="12" font-weight="700" text-decoration="underline">id ma_cu_tri</text>
<text x="662" y="1579" font-family="Arial" font-size="12" font-weight="400">ma_bau_cu</text>
<text x="662" y="1596" font-family="Arial" font-size="12" font-weight="400">ma_sinh_vien</text>
<text x="662" y="1613" font-family="Arial" font-size="12" font-weight="400">da_bo_phieu</text>
<text x="662" y="1630" font-family="Arial" font-size="12" font-weight="400">...</text>
<rect x="650" y="1780" width="240" height="105" rx="7" fill="white" stroke="black" stroke-width="2.2"/>
<line x1="813.2" y1="1780" x2="813.2" y2="1885" stroke="black" stroke-width="1.8"/>
<text x="851.6" y="1836.5" text-anchor="middle" font-family="Arial" font-size="13" font-weight="700">Phieu_bau</text>
<text x="662" y="1802" font-family="Arial" font-size="12" font-weight="700" text-decoration="underline">id ma_phieu_bau</text>
<text x="662" y="1819" font-family="Arial" font-size="12" font-weight="400">ma_bau_cu</text>
<text x="662" y="1836" font-family="Arial" font-size="12" font-weight="400">hash_ip</text>
<text x="662" y="1853" font-family="Arial" font-size="12" font-weight="400">thoi_gian_gui</text>
<rect x="1050" y="1540" width="260" height="125" rx="7" fill="white" stroke="black" stroke-width="2.2"/>
<line x1="1226.8" y1="1540" x2="1226.8" y2="1665" stroke="black" stroke-width="1.8"/>
<text x="1268.3999999999999" y="1606.5" text-anchor="middle" font-family="Arial" font-size="13" font-weight="700">Ung_cu_vien</text>
<text x="1062" y="1562" font-family="Arial" font-size="12" font-weight="700" text-decoration="underline">id ma_ung_cu_vien</text>
<text x="1062" y="1579" font-family="Arial" font-size="12" font-weight="400">ma_bau_cu</text>
<text x="1062" y="1596" font-family="Arial" font-size="12" font-weight="400">ma_sinh_vien</text>
<text x="1062" y="1613" font-family="Arial" font-size="12" font-weight="400">ho_ten</text>
<text x="1062" y="1630" font-family="Arial" font-size="12" font-weight="400">lop</text>
<text x="1062" y="1647" font-family="Arial" font-size="12" font-weight="400">...</text>
<rect x="1050" y="1800" width="280" height="95" rx="7" fill="white" stroke="black" stroke-width="2.2"/>
<line x1="1240.4" y1="1800" x2="1240.4" y2="1895" stroke="black" stroke-width="1.8"/>
<text x="1285.2" y="1851.5" text-anchor="middle" font-family="Arial" font-size="13" font-weight="700">Chi_tiet_phieu_bau</text>
<text x="1062" y="1822" font-family="Arial" font-size="12" font-weight="700" text-decoration="underline">id ma_chi_tiet</text>
<text x="1062" y="1839" font-family="Arial" font-size="12" font-weight="400">ma_phieu_bau</text>
<text x="1062" y="1856" font-family="Arial" font-size="12" font-weight="400">ma_ung_cu_vien</text>
<rect x="2350" y="170" width="285" height="105" rx="7" fill="white" stroke="black" stroke-width="2.2"/>
<line x1="2543.8" y1="170" x2="2543.8" y2="275" stroke="black" stroke-width="1.8"/>
<text x="2589.4" y="226.5" text-anchor="middle" font-family="Arial" font-size="13" font-weight="700">Personal_tokens</text>
<text x="2362" y="192" font-family="Arial" font-size="12" font-weight="700" text-decoration="underline">id</text>
<text x="2362" y="209" font-family="Arial" font-size="12" font-weight="400">tokenable_id</text>
<text x="2362" y="226" font-family="Arial" font-size="12" font-weight="400">token</text>
<text x="2362" y="243" font-family="Arial" font-size="12" font-weight="400">abilities</text>
<text x="2362" y="260" font-family="Arial" font-size="12" font-weight="400">...</text>
<rect x="2350" y="380" width="285" height="85" rx="7" fill="white" stroke="black" stroke-width="2.2"/>
<line x1="2543.8" y1="380" x2="2543.8" y2="465" stroke="black" stroke-width="1.8"/>
<text x="2589.4" y="426.5" text-anchor="middle" font-family="Arial" font-size="13" font-weight="700">Password_reset</text>
<text x="2362" y="402" font-family="Arial" font-size="12" font-weight="700" text-decoration="underline">id email</text>
<text x="2362" y="419" font-family="Arial" font-size="12" font-weight="400">token</text>
<text x="2362" y="436" font-family="Arial" font-size="12" font-weight="400">created_at</text>
<rect x="2350" y="570" width="285" height="115" rx="7" fill="white" stroke="black" stroke-width="2.2"/>
<line x1="2543.8" y1="570" x2="2543.8" y2="685" stroke="black" stroke-width="1.8"/>
<text x="2589.4" y="631.5" text-anchor="middle" font-family="Arial" font-size="13" font-weight="700">Activity_logs</text>
<text x="2362" y="592" font-family="Arial" font-size="12" font-weight="700" text-decoration="underline">id</text>
<text x="2362" y="609" font-family="Arial" font-size="12" font-weight="400">user_id</text>
<text x="2362" y="626" font-family="Arial" font-size="12" font-weight="400">action</text>
<text x="2362" y="643" font-family="Arial" font-size="12" font-weight="400">model_type</text>
<text x="2362" y="660" font-family="Arial" font-size="12" font-weight="400">created_at</text>
<text x="2362" y="677" font-family="Arial" font-size="12" font-weight="400">...</text>
<rect x="2350" y="820" width="285" height="105" rx="7" fill="white" stroke="black" stroke-width="2.2"/>
<line x1="2543.8" y1="820" x2="2543.8" y2="925" stroke="black" stroke-width="1.8"/>
<text x="2589.4" y="876.5" text-anchor="middle" font-family="Arial" font-size="13" font-weight="700">Smtp_settings</text>
<text x="2362" y="842" font-family="Arial" font-size="12" font-weight="700" text-decoration="underline">id</text>
<text x="2362" y="859" font-family="Arial" font-size="12" font-weight="400">mail_host</text>
<text x="2362" y="876" font-family="Arial" font-size="12" font-weight="400">mail_username</text>
<text x="2362" y="893" font-family="Arial" font-size="12" font-weight="400">is_active</text>
<text x="2362" y="910" font-family="Arial" font-size="12" font-weight="400">...</text>
<rect x="2350" y="1030" width="285" height="105" rx="7" fill="white" stroke="black" stroke-width="2.2"/>
<line x1="2543.8" y1="1030" x2="2543.8" y2="1135" stroke="black" stroke-width="1.8"/>
<text x="2589.4" y="1086.5" text-anchor="middle" font-family="Arial" font-size="13" font-weight="700">Gemini_settings</text>
<text x="2362" y="1052" font-family="Arial" font-size="12" font-weight="700" text-decoration="underline">id</text>
<text x="2362" y="1069" font-family="Arial" font-size="12" font-weight="400">api_key</text>
<text x="2362" y="1086" font-family="Arial" font-size="12" font-weight="400">model</text>
<text x="2362" y="1103" font-family="Arial" font-size="12" font-weight="400">is_active</text>
<text x="2362" y="1120" font-family="Arial" font-size="12" font-weight="400">...</text>
<rect x="2350" y="1240" width="285" height="105" rx="7" fill="white" stroke="black" stroke-width="2.2"/>
<line x1="2543.8" y1="1240" x2="2543.8" y2="1345" stroke="black" stroke-width="1.8"/>
<text x="2589.4" y="1296.5" text-anchor="middle" font-family="Arial" font-size="13" font-weight="700">Failed_jobs</text>
<text x="2362" y="1262" font-family="Arial" font-size="12" font-weight="700" text-decoration="underline">id</text>
<text x="2362" y="1279" font-family="Arial" font-size="12" font-weight="400">uuid</text>
<text x="2362" y="1296" font-family="Arial" font-size="12" font-weight="400">queue</text>
<text x="2362" y="1313" font-family="Arial" font-size="12" font-weight="400">failed_at</text>
<text x="2362" y="1330" font-family="Arial" font-size="12" font-weight="400">...</text>
<rect x="2350" y="1450" width="285" height="85" rx="7" fill="white" stroke="black" stroke-width="2.2"/>
<line x1="2543.8" y1="1450" x2="2543.8" y2="1535" stroke="black" stroke-width="1.8"/>
<text x="2589.4" y="1496.5" text-anchor="middle" font-family="Arial" font-size="13" font-weight="700">Migrations</text>
<text x="2362" y="1472" font-family="Arial" font-size="12" font-weight="700" text-decoration="underline">id</text>
<text x="2362" y="1489" font-family="Arial" font-size="12" font-weight="400">migration</text>
<text x="2362" y="1506" font-family="Arial" font-size="12" font-weight="400">batch</text>
<rect x="2200" y="1645" width="520" height="95" rx="6" fill="white" stroke="black"/>
<text x="2210" y="1670" font-family="Arial" font-size="14" font-weight="700">Chu thich</text>
<text x="2210" y="1696" font-family="Arial" font-size="13">- Truong id/khoa chinh duoc gach chan</text>
<text x="2210" y="1718" font-family="Arial" font-size="13">- Duong dut: lien ket logic khong khai bao FK</text>
</svg>