<svg xmlns="http://www.w3.org/2000/svg" width="2600" height="1680" viewBox="0 0 2600 1680">
<defs>
  <marker id="arrow" viewBox="0 0 10 10" refX="9" refY="5" markerWidth="8" markerHeight="8" orient="auto-start-reverse"><path d="M 0 0 L 10 5 L 0 10 z" fill="#4b5563"/></marker>
  <marker id="arrow-dashed" viewBox="0 0 10 10" refX="9" refY="5" markerWidth="8" markerHeight="8" orient="auto-start-reverse"><path d="M 0 0 L 10 5 L 0 10 z" fill="#b26b00"/></marker>
  <style> text { dominant-baseline: alphabetic; } .groupTitle { font-family: Arial; font-size: 18px; font-weight: 700; fill:#111827; } </style>
</defs>
<rect width="100%" height="100%" fill="#ffffff"/>
<text x="1300" y="34" text-anchor="middle" font-family="Arial" font-size="27" font-weight="700" fill="#111827">ERD he thong quan ly su kien</text>
<text x="1300" y="60" text-anchor="middle" font-family="Arial" font-size="14" fill="#4b5563">Ban rut gon truong: giu PK, FK va truong tieu bieu; dau ... dai dien cac truong con lai.</text>
<rect x="45" y="95" width="1690" height="640" rx="14" fill="none" stroke="#c7d7f2" stroke-width="2"/>
<text x="65" y="122" class="groupTitle">Su kien - dang ky - diem danh - diem - thong bao</text>
<rect x="45" y="745" width="850" height="390" rx="14" fill="none" stroke="#b7dfc0" stroke-width="2"/>
<text x="65" y="772" class="groupTitle">Thu vien media</text>
<rect x="45" y="1148" width="1260" height="430" rx="14" fill="none" stroke="#d7c4f2" stroke-width="2"/>
<text x="65" y="1175" class="groupTitle">Bau cu truc tuyen</text>
<rect x="1770" y="80" width="420" height="1465" rx="14" fill="none" stroke="#efd39a" stroke-width="2"/>
<text x="1792" y="107" class="groupTitle">He thong va cau hinh</text>
<polyline points="660.0,260 680.0,280" fill="none" stroke="#2f5597" stroke-width="2" marker-end="url(#arrow)"/>
<text x="670.0" y="266.0" font-family="Arial" font-size="10.5" fill="#2f5597" text-anchor="middle">1-N</text>
<polyline points="800,170.0 900,170.0" fill="none" stroke="#2f5597" stroke-width="2" marker-end="url(#arrow)"/>
<text x="850.0" y="166.0" font-family="Arial" font-size="10.5" fill="#2f5597" text-anchor="middle">1-N</text>
<polyline points="370,305.0 440,335 440,260 500,260 510,370.0" fill="none" stroke="#2f5597" stroke-width="2" marker-end="url(#arrow)"/>
<text x="452.0" y="302.0" font-family="Arial" font-size="10.5" fill="#2f5597" text-anchor="middle">1-N</text>
<polyline points="370,305.0 440,310 440,175 890,175 900,170.0" fill="none" stroke="#2f5597" stroke-width="2" marker-end="url(#arrow)"/>
<text x="608.0" y="223.0" font-family="Arial" font-size="10.5" fill="#2f5597" text-anchor="middle">1-N</text>
<polyline points="850,370.0 950,410.0" fill="none" stroke="#2f5597" stroke-width="2" marker-end="url(#arrow)"/>
<text x="900.0" y="386.0" font-family="Arial" font-size="10.5" fill="#2f5597" text-anchor="middle">1-N</text>
<polyline points="370,305.0 420,395 420,215 930,215 930,390 950,410.0" fill="none" stroke="#2f5597" stroke-width="2" marker-end="url(#arrow)"/>
<text x="670.0" y="317.6666666666667" font-family="Arial" font-size="10.5" fill="#2f5597" text-anchor="middle">1-N</text>
<polyline points="1260,410.0 1355,320.0" fill="none" stroke="#2f5597" stroke-width="2" marker-end="url(#arrow)"/>
<text x="1307.5" y="361.0" font-family="Arial" font-size="10.5" fill="#2f5597" text-anchor="middle">1-N</text>
<polyline points="850,370.0 880,430 880,205 1335,205 1355,320.0" fill="none" stroke="#2f5597" stroke-width="2" marker-end="url(#arrow)"/>
<text x="1060.0" y="302.0" font-family="Arial" font-size="10.5" fill="#2f5597" text-anchor="middle">1-N</text>
<polyline points="370,305.0 410,435 410,170 1330,170 1330,300 1355,320.0" fill="none" stroke="#2f5597" stroke-width="2" marker-end="url(#arrow)"/>
<text x="867.5" y="279.3333333333333" font-family="Arial" font-size="10.5" fill="#2f5597" text-anchor="middle">1-N</text>
<polyline points="1260,410.0 1290,405 1290,565 1355,580.0" fill="none" stroke="#2f5597" stroke-width="2" marker-end="url(#arrow)"/>
<text x="1298.75" y="486.0" font-family="Arial" font-size="10.5" fill="#2f5597" text-anchor="middle">1-N</text>
<polyline points="370,305.0 430,470 430,690 1335,690 1335,565 1355,580.0" fill="none" stroke="#2f5597" stroke-width="2" marker-end="url(#arrow)"/>
<text x="875.8333333333334" y="546.0" font-family="Arial" font-size="10.5" fill="#2f5597" text-anchor="middle">1-N</text>
<polyline points="850,370.0 900,560 900,665 935,665 950,680.0" fill="none" stroke="#2f5597" stroke-width="2" marker-end="url(#arrow)"/>
<text x="907.0" y="584.0" font-family="Arial" font-size="10.5" fill="#2f5597" text-anchor="middle">1-N</text>
<polyline points="370,305.0 420,500 420,710 935,710 950,680.0" fill="none" stroke="#2f5597" stroke-width="2" marker-end="url(#arrow)"/>
<text x="619.0" y="577.0" font-family="Arial" font-size="10.5" fill="#2f5597" text-anchor="middle">1-N</text>
<polyline points="850,370.0 890,635 890,845 1335,845 1355,840.0" fill="none" stroke="#2f5597" stroke-width="2" marker-end="url(#arrow)"/>
<text x="1064.0" y="703.0" font-family="Arial" font-size="10.5" fill="#2f5597" text-anchor="middle">1-N</text>
<polyline points="370,305.0 405,520 405,925 1335,925 1355,840.0" fill="none" stroke="#2f5597" stroke-width="2" marker-end="url(#arrow)"/>
<text x="774.0" y="699.0" font-family="Arial" font-size="10.5" fill="#2f5597" text-anchor="middle">1-N</text>
<polyline points="680.0,460 690.0,760" fill="none" stroke="#2e7d32" stroke-width="2" marker-end="url(#arrow)"/>
<text x="685.0" y="606.0" font-family="Arial" font-size="10.5" fill="#2e7d32" text-anchor="middle">1-N</text>
<polyline points="370,305.0 420,510 420,830 500,830 510,850.0" fill="none" stroke="#2e7d32" stroke-width="2" marker-end="url(#arrow)"/>
<text x="444.0" y="661.0" font-family="Arial" font-size="10.5" fill="#2e7d32" text-anchor="middle">1-N</text>
<polyline points="370,940.0 430,925 430,1080 500,1080 510,1100.0" fill="none" stroke="#2e7d32" stroke-width="2" marker-end="url(#arrow)"/>
<text x="448.0" y="1021.0" font-family="Arial" font-size="10.5" fill="#2e7d32" text-anchor="middle">1-N</text>
<polyline points="690.0,940 675.0,1010" fill="none" stroke="#2e7d32" stroke-width="2" marker-end="url(#arrow)"/>
<text x="682.5" y="971.0" font-family="Arial" font-size="10.5" fill="#2e7d32" text-anchor="middle">1-N</text>
<polyline points="220.0,395 220,500 220,835 220.0,850" fill="none" stroke="#2e7d32" stroke-width="2" marker-end="url(#arrow)"/>
<text x="220.0" y="641.0" font-family="Arial" font-size="10.5" fill="#2e7d32" text-anchor="middle">1-N</text>
<polyline points="220.0,395 140,500 140,1120 230.0,1135" fill="none" stroke="#7b3fb5" stroke-width="2" marker-end="url(#arrow)"/>
<text x="182.5" y="783.5" font-family="Arial" font-size="10.5" fill="#7b3fb5" text-anchor="middle">1-N</text>
<polyline points="390,1225.0 510,1225.0" fill="none" stroke="#7b3fb5" stroke-width="2" marker-end="url(#arrow)"/>
<text x="450.0" y="1221.0" font-family="Arial" font-size="10.5" fill="#7b3fb5" text-anchor="middle">1-N</text>
<polyline points="220.0,395 345,500 345,1210 500,1210 510,1225.0" fill="none" stroke="#7b3fb5" stroke-width="2" marker-end="url(#arrow)"/>
<text x="384.0" y="904.0" font-family="Arial" font-size="10.5" fill="#7b3fb5" text-anchor="middle">1-N</text>
<polyline points="390,1225.0 410,1280 500,1410 510,1435.0" fill="none" stroke="#7b3fb5" stroke-width="2" marker-end="url(#arrow)"/>
<text x="452.5" y="1333.5" font-family="Arial" font-size="10.5" fill="#7b3fb5" text-anchor="middle">1-N</text>
<polyline points="390,1225.0 410,1220 925,1220 940,1225.0" fill="none" stroke="#7b3fb5" stroke-width="2" marker-end="url(#arrow)"/>
<text x="666.25" y="1218.5" font-family="Arial" font-size="10.5" fill="#7b3fb5" text-anchor="middle">1-N</text>
<polyline points="810,1435.0 940,1475.0" fill="none" stroke="#7b3fb5" stroke-width="2" marker-end="url(#arrow)"/>
<text x="875.0" y="1451.0" font-family="Arial" font-size="10.5" fill="#7b3fb5" text-anchor="middle">1-N</text>
<polyline points="1100.0,1315 1105.0,1385" fill="none" stroke="#7b3fb5" stroke-width="2" marker-end="url(#arrow)"/>
<text x="1102.5" y="1346.0" font-family="Arial" font-size="10.5" fill="#7b3fb5" text-anchor="middle">1-N</text>
<polyline points="370,305.0 400,260 400,55 1785,55 1785,180 1810,200.0" fill="none" stroke="#b26b00" stroke-width="2" stroke-dasharray="8 6" marker-end="url(#arrow-dashed)"/>
<text x="1091.6666666666667" y="171.83333333333334" font-family="Arial" font-size="10.5" fill="#b26b00" text-anchor="middle">logic</text>
<polyline points="370,305.0 410,300 410,45 1775,45 1775,350 1810,375.0" fill="none" stroke="#b26b00" stroke-width="2" stroke-dasharray="8 6" marker-end="url(#arrow-dashed)"/>
<text x="1091.6666666666667" y="232.66666666666666" font-family="Arial" font-size="10.5" fill="#b26b00" text-anchor="middle">logic</text>
<polyline points="370,305.0 420,340 420,35 1765,35 1765,500 1810,520.0" fill="none" stroke="#b26b00" stroke-width="2" stroke-dasharray="8 6" marker-end="url(#arrow-dashed)"/>
<text x="1091.6666666666667" y="285.1666666666667" font-family="Arial" font-size="10.5" fill="#b26b00" text-anchor="middle">logic</text>
<rect x="70" y="215" width="300" height="180" rx="8" fill="#eaf2ff" stroke="#2f5597" stroke-width="2"/>
<rect x="70" y="215" width="300" height="31" rx="8" fill="#2f5597" stroke="#2f5597" stroke-width="2"/>
<text x="220.0" y="236" text-anchor="middle" font-family="Arial" font-size="14" font-weight="700" fill="white">NGUOI_DUNG</text>
<text x="83" y="264" font-family="Arial" font-size="12" font-weight="700" fill="#111827">PK ma_sinh_vien</text>
<text x="83" y="282" font-family="Arial" font-size="12" font-weight="400" fill="#374151">vai_tro, lop, ho_ten</text>
<text x="83" y="300" font-family="Arial" font-size="12" font-weight="400" fill="#374151">email, mat_khau</text>
<text x="83" y="318" font-family="Arial" font-size="12" font-weight="400" fill="#374151">trang_thai</text>
<text x="83" y="336" font-family="Arial" font-size="12" font-weight="400" fill="#374151">...</text>
<rect x="520" y="80" width="280" height="180" rx="8" fill="#eaf2ff" stroke="#2f5597" stroke-width="2"/>
<rect x="520" y="80" width="280" height="31" rx="8" fill="#2f5597" stroke="#2f5597" stroke-width="2"/>
<text x="660.0" y="101" text-anchor="middle" font-family="Arial" font-size="14" font-weight="700" fill="white">LOAI_SU_KIEN</text>
<text x="533" y="129" font-family="Arial" font-size="12" font-weight="700" fill="#111827">PK ma_loai_su_kien</text>
<text x="533" y="147" font-family="Arial" font-size="12" font-weight="400" fill="#374151">ten_loai, mo_ta</text>
<text x="533" y="165" font-family="Arial" font-size="12" font-weight="400" fill="#374151">...</text>
<rect x="900" y="80" width="320" height="180" rx="8" fill="#eaf2ff" stroke="#2f5597" stroke-width="2"/>
<rect x="900" y="80" width="320" height="31" rx="8" fill="#2f5597" stroke="#2f5597" stroke-width="2"/>
<text x="1060.0" y="101" text-anchor="middle" font-family="Arial" font-size="14" font-weight="700" fill="white">MAU_BAI_DANG</text>
<text x="913" y="129" font-family="Arial" font-size="12" font-weight="700" fill="#111827">PK ma_mau</text>
<text x="913" y="147" font-family="Arial" font-size="12" font-weight="700" fill="#111827">FK ma_nguoi_tao</text>
<text x="913" y="165" font-family="Arial" font-size="12" font-weight="700" fill="#111827">FK ma_loai_su_kien</text>
<text x="913" y="183" font-family="Arial" font-size="12" font-weight="400" fill="#374151">ten_mau, bo_cuc</text>
<text x="913" y="201" font-family="Arial" font-size="12" font-weight="400" fill="#374151">...</text>
<rect x="510" y="280" width="340" height="180" rx="8" fill="#eaf2ff" stroke="#2f5597" stroke-width="2"/>
<rect x="510" y="280" width="340" height="31" rx="8" fill="#2f5597" stroke="#2f5597" stroke-width="2"/>
<text x="680.0" y="301" text-anchor="middle" font-family="Arial" font-size="14" font-weight="700" fill="white">SU_KIEN</text>
<text x="523" y="329" font-family="Arial" font-size="12" font-weight="700" fill="#111827">PK ma_su_kien</text>
<text x="523" y="347" font-family="Arial" font-size="12" font-weight="700" fill="#111827">FK ma_loai_su_kien</text>
<text x="523" y="365" font-family="Arial" font-size="12" font-weight="700" fill="#111827">FK ma_nguoi_tao</text>
<text x="523" y="383" font-family="Arial" font-size="12" font-weight="700" fill="#111827">FK ma_nguoi_to_chuc</text>
<text x="523" y="401" font-family="Arial" font-size="12" font-weight="400" fill="#374151">ten_su_kien, thoi_gian</text>
<text x="523" y="419" font-family="Arial" font-size="12" font-weight="400" fill="#374151">dia_diem, diem_cong</text>
<text x="523" y="437" font-family="Arial" font-size="12" font-weight="400" fill="#374151">trang_thai, qr_token</text>
<text x="523" y="455" font-family="Arial" font-size="12" font-weight="400" fill="#374151">...</text>
<rect x="950" y="320" width="310" height="180" rx="8" fill="#eaf2ff" stroke="#2f5597" stroke-width="2"/>
<rect x="950" y="320" width="310" height="31" rx="8" fill="#2f5597" stroke="#2f5597" stroke-width="2"/>
<text x="1105.0" y="341" text-anchor="middle" font-family="Arial" font-size="14" font-weight="700" fill="white">DANG_KY</text>
<text x="963" y="369" font-family="Arial" font-size="12" font-weight="700" fill="#111827">PK ma_dang_ky</text>
<text x="963" y="387" font-family="Arial" font-size="12" font-weight="700" fill="#111827">FK ma_sinh_vien</text>
<text x="963" y="405" font-family="Arial" font-size="12" font-weight="700" fill="#111827">FK ma_su_kien</text>
<text x="963" y="423" font-family="Arial" font-size="12" font-weight="400" fill="#374151">trang_thai_tham_gia</text>
<text x="963" y="441" font-family="Arial" font-size="12" font-weight="400" fill="#374151">...</text>
<rect x="1355" y="230" width="340" height="180" rx="8" fill="#eaf2ff" stroke="#2f5597" stroke-width="2"/>
<rect x="1355" y="230" width="340" height="31" rx="8" fill="#2f5597" stroke="#2f5597" stroke-width="2"/>
<text x="1525.0" y="251" text-anchor="middle" font-family="Arial" font-size="14" font-weight="700" fill="white">CHI_TIET_DIEM_DANH</text>
<text x="1368" y="279" font-family="Arial" font-size="12" font-weight="700" fill="#111827">PK ma_chi_tiet_diem_danh</text>
<text x="1368" y="297" font-family="Arial" font-size="12" font-weight="700" fill="#111827">FK ma_dang_ky</text>
<text x="1368" y="315" font-family="Arial" font-size="12" font-weight="700" fill="#111827">FK ma_su_kien</text>
<text x="1368" y="333" font-family="Arial" font-size="12" font-weight="700" fill="#111827">FK ma_sinh_vien</text>
<text x="1368" y="351" font-family="Arial" font-size="12" font-weight="400" fill="#374151">loai_diem_danh, diem_danh_at</text>
<text x="1368" y="369" font-family="Arial" font-size="12" font-weight="400" fill="#374151">...</text>
<rect x="1355" y="490" width="330" height="180" rx="8" fill="#eaf2ff" stroke="#2f5597" stroke-width="2"/>
<rect x="1355" y="490" width="330" height="31" rx="8" fill="#2f5597" stroke="#2f5597" stroke-width="2"/>
<text x="1520.0" y="511" text-anchor="middle" font-family="Arial" font-size="14" font-weight="700" fill="white">LICH_SU_DIEM</text>
<text x="1368" y="539" font-family="Arial" font-size="12" font-weight="700" fill="#111827">PK ma_lich_su_diem</text>
<text x="1368" y="557" font-family="Arial" font-size="12" font-weight="700" fill="#111827">FK ma_sinh_vien</text>
<text x="1368" y="575" font-family="Arial" font-size="12" font-weight="700" fill="#111827">FK ma_dang_ky</text>
<text x="1368" y="593" font-family="Arial" font-size="12" font-weight="400" fill="#374151">diem, nguon</text>
<text x="1368" y="611" font-family="Arial" font-size="12" font-weight="400" fill="#374151">thoi_gian_ghi_nhan</text>
<text x="1368" y="629" font-family="Arial" font-size="12" font-weight="400" fill="#374151">...</text>
<rect x="950" y="590" width="315" height="180" rx="8" fill="#eaf2ff" stroke="#2f5597" stroke-width="2"/>
<rect x="950" y="590" width="315" height="31" rx="8" fill="#2f5597" stroke="#2f5597" stroke-width="2"/>
<text x="1107.5" y="611" text-anchor="middle" font-family="Arial" font-size="14" font-weight="700" fill="white">THONG_BAO</text>
<text x="963" y="639" font-family="Arial" font-size="12" font-weight="700" fill="#111827">PK ma_thong_bao</text>
<text x="963" y="657" font-family="Arial" font-size="12" font-weight="700" fill="#111827">FK ma_sinh_vien</text>
<text x="963" y="675" font-family="Arial" font-size="12" font-weight="700" fill="#111827">FK ma_su_kien_lien_quan</text>
<text x="963" y="693" font-family="Arial" font-size="12" font-weight="400" fill="#374151">tieu_de, da_doc</text>
<text x="963" y="711" font-family="Arial" font-size="12" font-weight="400" fill="#374151">...</text>
<rect x="1355" y="750" width="350" height="180" rx="8" fill="#eaf2ff" stroke="#2f5597" stroke-width="2"/>
<rect x="1355" y="750" width="350" height="31" rx="8" fill="#2f5597" stroke="#2f5597" stroke-width="2"/>
<text x="1530.0" y="771" text-anchor="middle" font-family="Arial" font-size="14" font-weight="700" fill="white">LICH_GUI_THONG_BAO</text>
<text x="1368" y="799" font-family="Arial" font-size="12" font-weight="700" fill="#111827">PK ma_lich_gui</text>
<text x="1368" y="817" font-family="Arial" font-size="12" font-weight="700" fill="#111827">FK ma_su_kien_lien_quan</text>
<text x="1368" y="835" font-family="Arial" font-size="12" font-weight="700" fill="#111827">FK ma_nguoi_tao</text>
<text x="1368" y="853" font-family="Arial" font-size="12" font-weight="400" fill="#374151">pham_vi, kieu_gui</text>
<text x="1368" y="871" font-family="Arial" font-size="12" font-weight="400" fill="#374151">trang_thai, thoi_gian_gui</text>
<text x="1368" y="889" font-family="Arial" font-size="12" font-weight="400" fill="#374151">...</text>
<rect x="510" y="760" width="360" height="180" rx="8" fill="#eaf7ef" stroke="#2e7d32" stroke-width="2"/>
<rect x="510" y="760" width="360" height="31" rx="8" fill="#2e7d32" stroke="#2e7d32" stroke-width="2"/>
<text x="690.0" y="781" text-anchor="middle" font-family="Arial" font-size="14" font-weight="700" fill="white">THU_VIEN_DA_PHUONG_TIEN</text>
<text x="523" y="809" font-family="Arial" font-size="12" font-weight="700" fill="#111827">PK ma_phuong_tien</text>
<text x="523" y="827" font-family="Arial" font-size="12" font-weight="700" fill="#111827">FK ma_su_kien</text>
<text x="523" y="845" font-family="Arial" font-size="12" font-weight="700" fill="#111827">FK ma_nguoi_tai_len</text>
<text x="523" y="863" font-family="Arial" font-size="12" font-weight="400" fill="#374151">ten_tep, loai_tep</text>
<text x="523" y="881" font-family="Arial" font-size="12" font-weight="400" fill="#374151">duong_dan_tep</text>
<text x="523" y="899" font-family="Arial" font-size="12" font-weight="400" fill="#374151">...</text>
<rect x="70" y="850" width="300" height="180" rx="8" fill="#eaf7ef" stroke="#2e7d32" stroke-width="2"/>
<rect x="70" y="850" width="300" height="31" rx="8" fill="#2e7d32" stroke="#2e7d32" stroke-width="2"/>
<text x="220.0" y="871" text-anchor="middle" font-family="Arial" font-size="14" font-weight="700" fill="white">THE_ANH</text>
<text x="83" y="899" font-family="Arial" font-size="12" font-weight="700" fill="#111827">PK ma_the_anh</text>
<text x="83" y="917" font-family="Arial" font-size="12" font-weight="700" fill="#111827">FK ma_nguoi_tao</text>
<text x="83" y="935" font-family="Arial" font-size="12" font-weight="400" fill="#374151">ten_the, mau_sac</text>
<text x="83" y="953" font-family="Arial" font-size="12" font-weight="400" fill="#374151">...</text>
<rect x="510" y="1010" width="330" height="180" rx="8" fill="#eaf7ef" stroke="#2e7d32" stroke-width="2"/>
<rect x="510" y="1010" width="330" height="31" rx="8" fill="#2e7d32" stroke="#2e7d32" stroke-width="2"/>
<text x="675.0" y="1031" text-anchor="middle" font-family="Arial" font-size="14" font-weight="700" fill="white">THE_ANH_THU_VIEN</text>
<text x="523" y="1059" font-family="Arial" font-size="12" font-weight="700" fill="#111827">PK id</text>
<text x="523" y="1077" font-family="Arial" font-size="12" font-weight="700" fill="#111827">FK ma_the_anh</text>
<text x="523" y="1095" font-family="Arial" font-size="12" font-weight="700" fill="#111827">FK ma_phuong_tien</text>
<text x="523" y="1113" font-family="Arial" font-size="12" font-weight="400" fill="#374151">...</text>
<rect x="70" y="1135" width="320" height="180" rx="8" fill="#f5edff" stroke="#7b3fb5" stroke-width="2"/>
<rect x="70" y="1135" width="320" height="31" rx="8" fill="#7b3fb5" stroke="#7b3fb5" stroke-width="2"/>
<text x="230.0" y="1156" text-anchor="middle" font-family="Arial" font-size="14" font-weight="700" fill="white">BAU_CU</text>
<text x="83" y="1184" font-family="Arial" font-size="12" font-weight="700" fill="#111827">PK ma_bau_cu</text>
<text x="83" y="1202" font-family="Arial" font-size="12" font-weight="700" fill="#111827">FK ma_nguoi_tao</text>
<text x="83" y="1220" font-family="Arial" font-size="12" font-weight="400" fill="#374151">tieu_de, thoi_gian</text>
<text x="83" y="1238" font-family="Arial" font-size="12" font-weight="400" fill="#374151">trang_thai, hien_thi</text>
<text x="83" y="1256" font-family="Arial" font-size="12" font-weight="400" fill="#374151">...</text>
<rect x="510" y="1135" width="300" height="180" rx="8" fill="#f5edff" stroke="#7b3fb5" stroke-width="2"/>
<rect x="510" y="1135" width="300" height="31" rx="8" fill="#7b3fb5" stroke="#7b3fb5" stroke-width="2"/>
<text x="660.0" y="1156" text-anchor="middle" font-family="Arial" font-size="14" font-weight="700" fill="white">CU_TRI</text>
<text x="523" y="1184" font-family="Arial" font-size="12" font-weight="700" fill="#111827">PK ma_cu_tri</text>
<text x="523" y="1202" font-family="Arial" font-size="12" font-weight="700" fill="#111827">FK ma_bau_cu</text>
<text x="523" y="1220" font-family="Arial" font-size="12" font-weight="700" fill="#111827">FK ma_sinh_vien</text>
<text x="523" y="1238" font-family="Arial" font-size="12" font-weight="400" fill="#374151">da_bo_phieu</text>
<text x="523" y="1256" font-family="Arial" font-size="12" font-weight="400" fill="#374151">...</text>
<rect x="510" y="1345" width="300" height="180" rx="8" fill="#f5edff" stroke="#7b3fb5" stroke-width="2"/>
<rect x="510" y="1345" width="300" height="31" rx="8" fill="#7b3fb5" stroke="#7b3fb5" stroke-width="2"/>
<text x="660.0" y="1366" text-anchor="middle" font-family="Arial" font-size="14" font-weight="700" fill="white">PHIEU_BAU</text>
<text x="523" y="1394" font-family="Arial" font-size="12" font-weight="700" fill="#111827">PK ma_phieu_bau</text>
<text x="523" y="1412" font-family="Arial" font-size="12" font-weight="700" fill="#111827">FK ma_bau_cu</text>
<text x="523" y="1430" font-family="Arial" font-size="12" font-weight="400" fill="#374151">hash_ip</text>
<text x="523" y="1448" font-family="Arial" font-size="12" font-weight="400" fill="#374151">thoi_gian_gui</text>
<text x="523" y="1466" font-family="Arial" font-size="12" font-weight="400" fill="#374151">...</text>
<rect x="940" y="1135" width="320" height="180" rx="8" fill="#f5edff" stroke="#7b3fb5" stroke-width="2"/>
<rect x="940" y="1135" width="320" height="31" rx="8" fill="#7b3fb5" stroke="#7b3fb5" stroke-width="2"/>
<text x="1100.0" y="1156" text-anchor="middle" font-family="Arial" font-size="14" font-weight="700" fill="white">UNG_CU_VIEN</text>
<text x="953" y="1184" font-family="Arial" font-size="12" font-weight="700" fill="#111827">PK ma_ung_cu_vien</text>
<text x="953" y="1202" font-family="Arial" font-size="12" font-weight="700" fill="#111827">FK ma_bau_cu</text>
<text x="953" y="1220" font-family="Arial" font-size="12" font-weight="400" fill="#374151">ma_sinh_vien, ho_ten</text>
<text x="953" y="1238" font-family="Arial" font-size="12" font-weight="400" fill="#374151">lop, thu_tu_hien_thi</text>
<text x="953" y="1256" font-family="Arial" font-size="12" font-weight="400" fill="#374151">...</text>
<rect x="940" y="1385" width="330" height="180" rx="8" fill="#f5edff" stroke="#7b3fb5" stroke-width="2"/>
<rect x="940" y="1385" width="330" height="31" rx="8" fill="#7b3fb5" stroke="#7b3fb5" stroke-width="2"/>
<text x="1105.0" y="1406" text-anchor="middle" font-family="Arial" font-size="14" font-weight="700" fill="white">CHI_TIET_PHIEU_BAU</text>
<text x="953" y="1434" font-family="Arial" font-size="12" font-weight="700" fill="#111827">PK ma_chi_tiet</text>
<text x="953" y="1452" font-family="Arial" font-size="12" font-weight="700" fill="#111827">FK ma_phieu_bau</text>
<text x="953" y="1470" font-family="Arial" font-size="12" font-weight="700" fill="#111827">FK ma_ung_cu_vien</text>
<text x="953" y="1488" font-family="Arial" font-size="12" font-weight="400" fill="#374151">...</text>
<rect x="1810" y="110" width="340" height="180" rx="8" fill="#fff8e6" stroke="#b26b00" stroke-width="2"/>
<rect x="1810" y="110" width="340" height="31" rx="8" fill="#b26b00" stroke="#b26b00" stroke-width="2"/>
<text x="1980.0" y="131" text-anchor="middle" font-family="Arial" font-size="14" font-weight="700" fill="white">PERSONAL_ACCESS_TOKENS</text>
<text x="1823" y="159" font-family="Arial" font-size="12" font-weight="700" fill="#111827">PK id</text>
<text x="1823" y="177" font-family="Arial" font-size="12" font-weight="400" fill="#374151">tokenable_type, tokenable_id</text>
<text x="1823" y="195" font-family="Arial" font-size="12" font-weight="400" fill="#374151">token, abilities</text>
<text x="1823" y="213" font-family="Arial" font-size="12" font-weight="400" fill="#374151">...</text>
<rect x="1810" y="285" width="340" height="180" rx="8" fill="#fff8e6" stroke="#b26b00" stroke-width="2"/>
<rect x="1810" y="285" width="340" height="31" rx="8" fill="#b26b00" stroke="#b26b00" stroke-width="2"/>
<text x="1980.0" y="306" text-anchor="middle" font-family="Arial" font-size="14" font-weight="700" fill="white">PASSWORD_RESET_TOKENS</text>
<text x="1823" y="334" font-family="Arial" font-size="12" font-weight="700" fill="#111827">PK email</text>
<text x="1823" y="352" font-family="Arial" font-size="12" font-weight="400" fill="#374151">token</text>
<text x="1823" y="370" font-family="Arial" font-size="12" font-weight="400" fill="#374151">created_at</text>
<rect x="1810" y="430" width="340" height="180" rx="8" fill="#fff8e6" stroke="#b26b00" stroke-width="2"/>
<rect x="1810" y="430" width="340" height="31" rx="8" fill="#b26b00" stroke="#b26b00" stroke-width="2"/>
<text x="1980.0" y="451" text-anchor="middle" font-family="Arial" font-size="14" font-weight="700" fill="white">ACTIVITY_LOGS</text>
<text x="1823" y="479" font-family="Arial" font-size="12" font-weight="700" fill="#111827">PK id</text>
<text x="1823" y="497" font-family="Arial" font-size="12" font-weight="400" fill="#374151">user_id, action</text>
<text x="1823" y="515" font-family="Arial" font-size="12" font-weight="400" fill="#374151">model_type, model_id</text>
<text x="1823" y="533" font-family="Arial" font-size="12" font-weight="400" fill="#374151">created_at</text>
<text x="1823" y="551" font-family="Arial" font-size="12" font-weight="400" fill="#374151">...</text>
<rect x="1810" y="665" width="340" height="180" rx="8" fill="#fff8e6" stroke="#b26b00" stroke-width="2"/>
<rect x="1810" y="665" width="340" height="31" rx="8" fill="#b26b00" stroke="#b26b00" stroke-width="2"/>
<text x="1980.0" y="686" text-anchor="middle" font-family="Arial" font-size="14" font-weight="700" fill="white">SMTP_SETTINGS</text>
<text x="1823" y="714" font-family="Arial" font-size="12" font-weight="700" fill="#111827">PK id</text>
<text x="1823" y="732" font-family="Arial" font-size="12" font-weight="400" fill="#374151">mail_host, mail_port</text>
<text x="1823" y="750" font-family="Arial" font-size="12" font-weight="400" fill="#374151">mail_username</text>
<text x="1823" y="768" font-family="Arial" font-size="12" font-weight="400" fill="#374151">is_active</text>
<text x="1823" y="786" font-family="Arial" font-size="12" font-weight="400" fill="#374151">...</text>
<rect x="1810" y="885" width="340" height="180" rx="8" fill="#fff8e6" stroke="#b26b00" stroke-width="2"/>
<rect x="1810" y="885" width="340" height="31" rx="8" fill="#b26b00" stroke="#b26b00" stroke-width="2"/>
<text x="1980.0" y="906" text-anchor="middle" font-family="Arial" font-size="14" font-weight="700" fill="white">GEMINI_SETTINGS</text>
<text x="1823" y="934" font-family="Arial" font-size="12" font-weight="700" fill="#111827">PK id</text>
<text x="1823" y="952" font-family="Arial" font-size="12" font-weight="400" fill="#374151">api_key, model</text>
<text x="1823" y="970" font-family="Arial" font-size="12" font-weight="400" fill="#374151">temperature, max_tokens</text>
<text x="1823" y="988" font-family="Arial" font-size="12" font-weight="400" fill="#374151">is_active</text>
<text x="1823" y="1006" font-family="Arial" font-size="12" font-weight="400" fill="#374151">...</text>
<rect x="1810" y="1110" width="340" height="180" rx="8" fill="#fff8e6" stroke="#b26b00" stroke-width="2"/>
<rect x="1810" y="1110" width="340" height="31" rx="8" fill="#b26b00" stroke="#b26b00" stroke-width="2"/>
<text x="1980.0" y="1131" text-anchor="middle" font-family="Arial" font-size="14" font-weight="700" fill="white">FAILED_JOBS</text>
<text x="1823" y="1159" font-family="Arial" font-size="12" font-weight="700" fill="#111827">PK id</text>
<text x="1823" y="1177" font-family="Arial" font-size="12" font-weight="400" fill="#374151">uuid</text>
<text x="1823" y="1195" font-family="Arial" font-size="12" font-weight="400" fill="#374151">connection, queue</text>
<text x="1823" y="1213" font-family="Arial" font-size="12" font-weight="400" fill="#374151">failed_at</text>
<text x="1823" y="1231" font-family="Arial" font-size="12" font-weight="400" fill="#374151">...</text>
<rect x="1810" y="1325" width="340" height="180" rx="8" fill="#fff8e6" stroke="#b26b00" stroke-width="2"/>
<rect x="1810" y="1325" width="340" height="31" rx="8" fill="#b26b00" stroke="#b26b00" stroke-width="2"/>
<text x="1980.0" y="1346" text-anchor="middle" font-family="Arial" font-size="14" font-weight="700" fill="white">MIGRATIONS</text>
<text x="1823" y="1374" font-family="Arial" font-size="12" font-weight="700" fill="#111827">PK id</text>
<text x="1823" y="1392" font-family="Arial" font-size="12" font-weight="400" fill="#374151">migration</text>
<text x="1823" y="1410" font-family="Arial" font-size="12" font-weight="400" fill="#374151">batch</text>
<rect x="1345" y="1435" width="380" height="105" rx="8" fill="#f9fafb" stroke="#d1d5db"/>
<text x="1365" y="1464" font-family="Arial" font-size="15" font-weight="700" fill="#111827">Chu thich</text>
<line x1="1365" y1="1488" x2="1445" y2="1488" stroke="#2f5597" stroke-width="2" marker-end="url(#arrow)"/>
<text x="1465" y="1493" font-family="Arial" font-size="13" fill="#374151">Quan he FK trong database</text>
<line x1="1365" y1="1518" x2="1445" y2="1518" stroke="#b26b00" stroke-width="2" stroke-dasharray="8 6" marker-end="url(#arrow-dashed)"/>
<text x="1465" y="1523" font-family="Arial" font-size="13" fill="#374151">Lien ket logic, khong khai bao FK</text>
</svg>