<svg xmlns="http://www.w3.org/2000/svg" width="794" height="1123" viewBox="0 0 794 1123">
  <rect width="794" height="1123" fill="#ffffff"/>
  <defs>
    <style>
      .boundary { fill:#ffffff; stroke:#111111; stroke-width:1.2; }
      .ellipse { fill:#ffffff; stroke:#111111; stroke-width:1.15; }
      .line { stroke:#111111; stroke-width:1.15; fill:none; }
      .title { font-family:"Times New Roman", serif; font-size:16px; font-weight:700; fill:#111111; }
      .label { font-family:"Times New Roman", serif; font-size:13px; fill:#111111; }
      .actorText { font-family:"Times New Roman", serif; font-size:13px; font-weight:700; fill:#111111; }
      .caption { font-family:"Times New Roman", serif; font-size:12px; fill:#111111; }
    </style>
  </defs>

  <text x="397" y="34" text-anchor="middle" class="title">Sơ đồ Use Case - Sinh viên</text>

  <rect x="148" y="68" width="585" height="900" class="boundary"/>
  <text x="440" y="96" text-anchor="middle" class="title">Hệ thống quản lý sự kiện</text>

  <!-- Actor -->
  <circle cx="72" cy="210" r="14" fill="#ffffff" stroke="#111111" stroke-width="1.2"/>
  <path d="M72 224 L72 272 M46 241 L98 241 M72 272 L50 312 M72 272 L94 312" class="line"/>
  <text x="72" y="337" text-anchor="middle" class="actorText">Sinh viên</text>

  <!-- Clean connector spine -->
  <path d="M102 241 L148 241" class="line"/>
  <path d="M148 241 L148 875" class="line"/>

  <!-- Use cases column 1 -->
  <ellipse cx="300" cy="145" rx="110" ry="27" class="ellipse"/>
  <text x="300" y="141" text-anchor="middle" class="label">Đăng ký</text>
  <text x="300" y="156" text-anchor="middle" class="label">tài khoản</text>

  <ellipse cx="300" cy="225" rx="110" ry="27" class="ellipse"/>
  <text x="300" y="229" text-anchor="middle" class="label">Đăng nhập</text>

  <ellipse cx="300" cy="305" rx="110" ry="27" class="ellipse"/>
  <text x="300" y="301" text-anchor="middle" class="label">Cập nhật hồ sơ</text>
  <text x="300" y="316" text-anchor="middle" class="label">cá nhân</text>

  <ellipse cx="300" cy="385" rx="110" ry="27" class="ellipse"/>
  <text x="300" y="389" text-anchor="middle" class="label">Đổi mật khẩu</text>

  <ellipse cx="300" cy="465" rx="110" ry="27" class="ellipse"/>
  <text x="300" y="461" text-anchor="middle" class="label">Xem danh sách</text>
  <text x="300" y="476" text-anchor="middle" class="label">sự kiện</text>

  <ellipse cx="300" cy="545" rx="110" ry="27" class="ellipse"/>
  <text x="300" y="541" text-anchor="middle" class="label">Tìm kiếm và lọc</text>
  <text x="300" y="556" text-anchor="middle" class="label">sự kiện</text>

  <ellipse cx="300" cy="625" rx="110" ry="27" class="ellipse"/>
  <text x="300" y="621" text-anchor="middle" class="label">Xem chi tiết</text>
  <text x="300" y="636" text-anchor="middle" class="label">sự kiện</text>

  <ellipse cx="300" cy="705" rx="110" ry="27" class="ellipse"/>
  <text x="300" y="701" text-anchor="middle" class="label">Đăng ký</text>
  <text x="300" y="716" text-anchor="middle" class="label">sự kiện</text>

  <!-- Use cases column 2 -->
  <ellipse cx="580" cy="145" rx="110" ry="27" class="ellipse"/>
  <text x="580" y="141" text-anchor="middle" class="label">Hủy đăng ký</text>
  <text x="580" y="156" text-anchor="middle" class="label">sự kiện</text>

  <ellipse cx="580" cy="225" rx="110" ry="27" class="ellipse"/>
  <text x="580" y="221" text-anchor="middle" class="label">Điểm danh</text>
  <text x="580" y="236" text-anchor="middle" class="label">bằng mã QR</text>

  <ellipse cx="580" cy="305" rx="110" ry="27" class="ellipse"/>
  <text x="580" y="301" text-anchor="middle" class="label">Xem lịch sử</text>
  <text x="580" y="316" text-anchor="middle" class="label">tham gia</text>

  <ellipse cx="580" cy="385" rx="110" ry="27" class="ellipse"/>
  <text x="580" y="381" text-anchor="middle" class="label">Xem điểm</text>
  <text x="580" y="396" text-anchor="middle" class="label">rèn luyện</text>

  <ellipse cx="580" cy="465" rx="110" ry="27" class="ellipse"/>
  <text x="580" y="469" text-anchor="middle" class="label">Nhận thông báo</text>

  <ellipse cx="580" cy="545" rx="110" ry="27" class="ellipse"/>
  <text x="580" y="541" text-anchor="middle" class="label">Tham gia</text>
  <text x="580" y="556" text-anchor="middle" class="label">bầu cử</text>

  <ellipse cx="580" cy="625" rx="110" ry="27" class="ellipse"/>
  <text x="580" y="621" text-anchor="middle" class="label">Sử dụng chatbot</text>
  <text x="580" y="636" text-anchor="middle" class="label">tra cứu thông tin</text>

  <!-- Branches, orthogonal and non-crossing -->
  <path d="M148 145 L190 145" class="line"/>
  <path d="M148 225 L190 225" class="line"/>
  <path d="M148 305 L190 305" class="line"/>
  <path d="M148 385 L190 385" class="line"/>
  <path d="M148 465 L190 465" class="line"/>
  <path d="M148 545 L190 545" class="line"/>
  <path d="M148 625 L190 625" class="line"/>
  <path d="M148 705 L190 705" class="line"/>

  <path d="M148 785 L440 785" class="line"/>
  <path d="M440 785 L440 145 L470 145" class="line"/>
  <path d="M440 225 L470 225" class="line"/>
  <path d="M440 305 L470 305" class="line"/>
  <path d="M440 385 L470 385" class="line"/>
  <path d="M440 465 L470 465" class="line"/>
  <path d="M440 545 L470 545" class="line"/>
  <path d="M440 625 L470 625" class="line"/>

  <text x="397" y="1015" text-anchor="middle" class="caption">Hình: Sơ đồ Use Case của tác nhân Sinh viên</text>
</svg>
